{
  "accessors": [
    {
      "bufferView": 2,
      "componentType": 5126,
      "count": 65532,
      "max": [
        1.0625400543212891,
        11.480081558227539,
        0.98562997579574585
      ],
      "min": [
        -1.5985150337219238,
        10.171130180358887,
        -0.8060150146484375
      ],
      "type": "VEC3"
    },
    {
      "bufferView": 2,
      "byteOffset": 786384,
      "componentType": 5126,
      "count": 65532,
      "max": [
        0.99998939037322998,
        0.99999535083770752,
        0.99997681379318237
      ],
      "min": [
        -0.99961763620376587,
        -0.99999850988388062,
        -0.99996888637542725
      ],
      "type": "VEC3"
    },
    {
      "bufferView": 1,
      "componentType": 5126,
      "count": 65532,
      "max": [
        0.86761099100112915,
        0.99891400337219238
      ],
      "min": [
        0.0001939999929163605,
        0.00010599999950500205
      ],
      "type": "VEC2"
    },
    {
      "bufferView": 0,
      "componentType": 5125,
      "count": 366267,
      "max": [
        65531
      ],
      "min": [
        0
      ],
      "type": "SCALAR"
    },
    {
      "bufferView": 2,
      "byteOffset": 1572768,
      "componentType": 5126,
      "count": 35805,
      "max": [
        0.66666901111602783,
        11.464428901672363,
        0.93345499038696289
      ],
      "min": [
        -1.6201440095901489,
        10.193110466003418,
        -0.84507602453231812
      ],
      "type": "VEC3"
    },
    {
      "bufferView": 2,
      "byteOffset": 2002428,
      "componentType": 5126,
      "count": 35805,
      "max": [
        0.99537199735641479,
        0.99988657236099243,
        0.99999737739562988
      ],
      "min": [
        -0.99999153614044189,
        -0.9999927282333374,
        -0.99999779462814331
      ],
      "type": "VEC3"
    },
    {
      "bufferView": 1,
      "byteOffset": 524256,
      "componentType": 5126,
      "count": 35805,
      "max": [
        0.80846101045608521,
        1
      ],
      "min": [
        0.0042349998839199543,
        0.0018759999657049775
      ],
      "type": "VEC2"
    },
    {
      "bufferView": 0,
      "byteOffset": 1465068,
      "componentType": 5125,
      "count": 162267,
      "max": [
        35804
      ],
      "min": [
        0
      ],
      "type": "SCALAR"
    }
  ],
  "asset": {
    "extras": {
      "author": "Digital Atlas of Ancient Life (https://sketchfab.com/DigitalAtlasOfAncientLife)",
      "license": "CC0-1.0 (http://creativecommons.org/publicdomain/zero/1.0/)",
      "source": "https://sketchfab.com/3d-models/porifera-archaeocyathid-08ef7e500f1648528221801f1a2e2b5a",
      "title": "Porifera: Archaeocyathid"
    },
    "generator": "Sketchfab-7.80.0",
    "version": "2.0"
  },
  "bufferViews": [
    {
      "buffer": 0,
      "byteLength": 2114136,
      "byteOffset": 0,
      "name": "floatBufferViews",
      "target": 34963
    },
    {
      "buffer": 0,
      "byteLength": 810696,
      "byteOffset": 2114136,
      "byteStride": 8,
      "name": "floatBufferViews",
      "target": 34962
    },
    {
      "buffer": 0,
      "byteLength": 2432088,
      "byteOffset": 2924832,
      "byteStride": 12,
      "name": "floatBufferViews",
      "target": 34962
    }
  ],
  "buffers": [
    {
      "byteLength": 5356920,
      "uri": "scene.bin"
    }
  ],
  "extensionsUsed": [
    "KHR_materials_unlit"
  ],
  "images": [
    {
      "uri": "textures/Archaeocyathid_baseColor.jpeg"
    }
  ],
  "materials": [
    {
      "doubleSided": true,
      "emissiveFactor": [
        0,
        0,
        0
      ],
      "extensions": {
        "KHR_materials_unlit": {}
      },
      "name": "Archaeocyathid",
      "pbrMetallicRoughness": {
        "baseColorFactor": [
          1,
          1,
          1,
          1
        ],
        "baseColorTexture": {
          "index": 0,
          "texCoord": 0
        },
        "metallicFactor": 0,
        "roughnessFactor": 1
      }
    }
  ],
  "meshes": [
    {
      "primitives": [
        {
          "attributes": {
            "NORMAL": 1,
            "POSITION": 0,
            "TEXCOORD_0": 2
          },
          "indices": 3,
          "material": 0,
          "mode": 4
        }
      ]
    },
    {
      "primitives": [
        {
          "attributes": {
            "NORMAL": 5,
            "POSITION": 4,
            "TEXCOORD_0": 6
          },
          "indices": 7,
          "material": 0,
          "mode": 4
        }
      ]
    }
  ],
  "nodes": [
    {
      "children": [
        1
      ],
      "name": "RootNode (gltf orientation matrix)",
      "rotation": [
        -0.70710678118654746,
        -0,
        -0,
        0.70710678118654757
      ]
    },
    {
      "children": [
        2
      ],
      "matrix": [
        -0.64781820774078369,
        0.75853109359741211,
        -0.070442505180835724,
        0,
        -0.76042008399963379,
        -0.64943146705627441,
        -3.4694469519536142e-18,
        0,
        -0.045747581869363785,
        0.053565897047519684,
        0.99751585721969604,
        0,
        7.7757906913757324,
        18.063756942749023,
        -0.019464673474431038,
        1
      ],
      "name": "RootNode (model correction matrix)"
    },
    {
      "children": [
        3,
        4
      ],
      "name": "Archaeocyathid.obj.cleaner.materialmerger.gles"
    },
    {
      "mesh": 0,
      "name": ""
    },
    {
      "mesh": 1,
      "name": ""
    }
  ],
  "samplers": [
    {
      "magFilter": 9729,
      "minFilter": 9987,
      "wrapS": 10497,
      "wrapT": 10497
    }
  ],
  "scene": 0,
  "scenes": [
    {
      "name": "OSG_Scene",
      "nodes": [
        0
      ]
    }
  ],
  "textures": [
    {
      "sampler": 0,
      "source": 0
    }
  ]
}

